<?xml version="1.0" encoding="UTF-8" standalone="no"?>
<!DOCTYPE svg PUBLIC "-//W3C//DTD SVG 1.1//EN" "http://www.w3.org/Graphics/SVG/1.1/DTD/svg11.dtd">
<svg width="100%" height="100%" viewBox="0 0 212 207" version="1.1" xmlns="http://www.w3.org/2000/svg" xmlns:xlink="http://www.w3.org/1999/xlink" xml:space="preserve" xmlns:serif="http://www.serif.com/" style="fill-rule:evenodd;clip-rule:evenodd;stroke-linejoin:round;stroke-miterlimit:2;">
    <g id="R-white" transform="matrix(26.771,0,0,26.771,-608.959,-887.867)">
        <path d="M24.496,33.321L26.728,33.321C27.056,33.321 27.364,33.383 27.652,33.507C27.94,33.631 28.192,33.801 28.408,34.017C28.624,34.233 28.794,34.487 28.918,34.779C29.042,35.071 29.104,35.381 29.104,35.709C29.104,36.037 29.042,36.345 28.918,36.633C28.794,36.921 28.624,37.173 28.408,37.389C28.192,37.605 27.94,37.775 27.652,37.899C27.364,38.023 27.056,38.085 26.728,38.085L28.9,40.713L28.624,40.713L26.332,37.905L26.728,37.905C27.032,37.905 27.314,37.849 27.574,37.737C27.834,37.625 28.064,37.471 28.264,37.275C28.464,37.079 28.62,36.847 28.732,36.579C28.844,36.311 28.9,36.021 28.9,35.709C28.9,35.389 28.844,35.095 28.732,34.827C28.62,34.559 28.464,34.327 28.264,34.131C28.064,33.935 27.834,33.781 27.574,33.669C27.314,33.557 27.032,33.501 26.728,33.501L24.688,33.501L24.688,40.713L24.496,40.713L24.496,33.321Z" style="fill:none;fill-rule:nonzero;stroke:white;stroke-width:0.26px;"/>
    </g>
</svg>
