<?xml version="1.0" encoding="UTF-8" standalone="no"?>
<!DOCTYPE svg PUBLIC "-//W3C//DTD SVG 1.1//EN" "http://www.w3.org/Graphics/SVG/1.1/DTD/svg11.dtd">
<svg width="100%" height="100%" viewBox="0 0 212 207" version="1.1" xmlns="http://www.w3.org/2000/svg" xmlns:xlink="http://www.w3.org/1999/xlink" xml:space="preserve" xmlns:serif="http://www.serif.com/" style="fill-rule:evenodd;clip-rule:evenodd;stroke-linejoin:round;stroke-miterlimit:2;">
    <g transform="matrix(26.0932,0,0,26.0932,-579.047,-862.778)">
        <path d="M24.448,39.609C24.688,39.969 24.954,40.229 25.246,40.389C25.538,40.549 25.86,40.629 26.212,40.629C26.476,40.629 26.718,40.591 26.938,40.515C27.158,40.439 27.346,40.333 27.502,40.197C27.658,40.061 27.78,39.897 27.868,39.705C27.956,39.513 28,39.305 28,39.081C28,38.865 27.97,38.663 27.91,38.475C27.85,38.287 27.75,38.109 27.61,37.941C27.47,37.773 27.284,37.619 27.052,37.479C26.82,37.339 26.532,37.217 26.188,37.113C25.052,36.761 24.484,36.093 24.484,35.109C24.484,34.821 24.538,34.559 24.646,34.323C24.754,34.087 24.896,33.889 25.072,33.729C25.248,33.569 25.448,33.445 25.672,33.357C25.896,33.269 26.128,33.225 26.368,33.225C26.752,33.225 27.106,33.311 27.43,33.483C27.754,33.655 28.008,33.949 28.192,34.365L28.012,34.461C27.876,34.149 27.68,33.895 27.424,33.699C27.168,33.503 26.812,33.405 26.356,33.405C26.156,33.405 25.956,33.441 25.756,33.513C25.556,33.585 25.378,33.691 25.222,33.831C25.066,33.971 24.938,34.143 24.838,34.347C24.738,34.551 24.688,34.781 24.688,35.037C24.688,35.525 24.81,35.917 25.054,36.213C25.298,36.509 25.712,36.753 26.296,36.945C27.016,37.177 27.514,37.471 27.79,37.827C28.066,38.183 28.204,38.597 28.204,39.069C28.204,39.333 28.154,39.571 28.054,39.783C27.954,39.995 27.814,40.177 27.634,40.329C27.454,40.481 27.242,40.599 26.998,40.683C26.754,40.767 26.488,40.809 26.2,40.809C25.816,40.809 25.462,40.721 25.138,40.545C24.814,40.369 24.536,40.089 24.304,39.705L24.448,39.609Z" style="fill-rule:nonzero;stroke:black;stroke-width:0.27px;"/>
    </g>
</svg>
