<?xml version="1.0" encoding="UTF-8" standalone="no"?>
<!DOCTYPE svg PUBLIC "-//W3C//DTD SVG 1.1//EN" "http://www.w3.org/Graphics/SVG/1.1/DTD/svg11.dtd">
<svg width="100%" height="100%" viewBox="0 0 282 99" version="1.1" xmlns="http://www.w3.org/2000/svg" xmlns:xlink="http://www.w3.org/1999/xlink" xml:space="preserve" xmlns:serif="http://www.serif.com/" style="fill-rule:evenodd;clip-rule:evenodd;stroke-linejoin:round;stroke-miterlimit:2;">
    <g id="Artboard1" transform="matrix(0.0283291,0,0,0.00702108,0,0)">
        <rect x="0" y="0" width="9933.07" height="14043.3" style="fill:none;"/>
        <g transform="matrix(6.92455,0,0,27.9396,-7887.95,-15600.7)">
            <g transform="matrix(1,0,0,1,147.361,68.8655)">
                <g transform="matrix(0.371703,0,0,1,986.609,-127.852)">
                    <path d="M1832.22,839.583L1246.21,839.583L1246.21,893.75L1832.22,893.75L1832.22,839.583Z" style="fill:rgb(0,129,129);"/>
                </g>
                <g transform="matrix(2.42861e-17,-0.371703,1,5.89806e-17,692.073,1310.95)">
                    <path d="M1832.22,839.583L1246.21,839.583L1246.21,893.75L1832.22,893.75L1832.22,839.583Z" style="fill:rgb(0,129,129);"/>
                </g>
            </g>
            <g transform="matrix(1,0,0,0.752019,-129.931,283.782)">
                <path d="M1349.91,866.667C1349.91,710.565 1406.74,562.658 1524.13,562.658L1551.21,562.658L1551.21,490.63L1524.13,490.63C1375.68,490.63 1295.74,669.259 1295.74,866.667L1295.74,902.681L1349.91,902.681L1349.91,866.667Z" style="fill:rgb(0,129,129);"/>
            </g>
            <g transform="matrix(0.733821,0,0,0.638957,873.344,290.337)">
                <path d="M1666.85,458.63L1592.42,458.63L1592.42,1160.71L1666.85,1160.71L1666.85,1075.94C1666.85,1075.94 1666.85,544.061 1666.85,544.061L1666.85,458.63Z" style="fill:rgb(0,129,129);"/>
            </g>
            <g transform="matrix(1,0,0,1,118.399,0)">
                <g transform="matrix(0.733821,0,0,0.638957,1010.96,290.337)">
                    <path d="M1932.4,458.63L1592.42,458.63L1592.42,544.325L1666.24,543.404L1932.4,543.404L1932.4,458.63Z" style="fill:rgb(0,129,129);"/>
                </g>
                <g transform="matrix(0.733821,0,0,0.638957,1010.96,683.821)">
                    <path d="M1932.4,458.63L1592.42,458.63L1592.42,544.325L1666.24,543.404L1932.4,543.404L1932.4,458.63Z" style="fill:rgb(0,129,129);"/>
                </g>
            </g>
        </g>
    </g>
</svg>
