<?xml version="1.0" encoding="UTF-8" standalone="no"?>
<!DOCTYPE svg PUBLIC "-//W3C//DTD SVG 1.1//EN" "http://www.w3.org/Graphics/SVG/1.1/DTD/svg11.dtd">
<svg width="100%" height="100%" viewBox="0 0 4500 4500" version="1.1" xmlns="http://www.w3.org/2000/svg" xmlns:xlink="http://www.w3.org/1999/xlink" xml:space="preserve" xmlns:serif="http://www.serif.com/" style="fill-rule:evenodd;clip-rule:evenodd;stroke-linecap:square;stroke-miterlimit:1.5;">
    <g id="Artboard1" transform="matrix(0.453032,0,0,0.320437,0,0)">
        <rect x="0" y="0" width="9933.07" height="14043.3" style="fill:none;"/>
        <clipPath id="_clip1">
            <rect x="0" y="0" width="9933.07" height="14043.3"/>
        </clipPath>
        <g clip-path="url(#_clip1)">
            <g transform="matrix(15.6388,0,0,22.11,-19998.9,-10859.1)">
                <g transform="matrix(0.782787,0,0,1,333.375,0)">
                    <path d="M1797.62,866.667L1280.81,866.667" style="fill:none;stroke:rgb(35,31,32);stroke-width:60.32px;"/>
                </g>
                <g transform="matrix(1,0,0,0.752019,0,214.917)">
                    <path d="M1322.83,866.667C1322.83,689.93 1391.22,526.644 1524.13,526.644" style="fill:none;stroke:rgb(35,31,32);stroke-width:61.22px;"/>
                </g>
                <g transform="matrix(0.733821,0,0,0.638957,433.693,291.478)">
                    <path d="M1895.49,501.017L1629.33,501.017L1629.33,1118.32L1957.21,1118.32" style="fill:none;stroke:rgb(35,31,32);stroke-width:78.73px;"/>
                </g>
                <g transform="matrix(1,0,0,0.69266,0,237.353)">
                    <path d="M1558.74,539.191L1558.74,1110.58" style="fill:none;stroke:rgb(35,31,32);stroke-width:62.97px;"/>
                </g>
            </g>
        </g>
    </g>
</svg>
